<?xml version="1.0" standalone="no"?>
<!DOCTYPE svg PUBLIC "-//W3C//DTD SVG 20010904//EN"
 "http://www.w3.org/TR/2001/REC-SVG-20010904/DTD/svg10.dtd">
<svg version="1.0" xmlns="http://www.w3.org/2000/svg"
 width="512.000000pt" height="512.000000pt" viewBox="0 0 512.000000 512.000000"
 preserveAspectRatio="xMidYMid meet">
<metadata>
Created by potrace 1.14, written by Peter Selinger 2001-2017
</metadata>
<g transform="translate(0.000000,512.000000) scale(0.100000,-0.100000)"
fill="#000000" stroke="none">
<path d="M4131 5087 c-6 -8 -3 -24 8 -47 21 -42 44 -83 51 -90 3 -3 28 -32 55
-64 70 -83 139 -150 217 -211 l67 -52 -26 -21 -25 -20 -60 58 c-67 65 -107 80
-188 74 -89 -7 -252 -74 -355 -146 -22 -16 -131 -119 -241 -229 l-201 -201
-38 64 c-21 34 -44 70 -51 78 -7 8 -14 20 -15 25 -1 6 -11 24 -20 40 -25 41
-25 41 15 87 20 22 36 48 37 57 0 9 2 24 4 34 9 47 -55 130 -113 146 -59 17
-92 -2 -219 -127 -145 -144 -163 -168 -163 -219 0 -83 106 -169 176 -143 13 5
24 7 24 4 0 -2 23 18 51 45 29 28 56 48 61 45 8 -5 65 -97 124 -202 l22 -37
-136 -136 -135 -136 -626 626 c-543 543 -666 661 -691 667 -3 0 -18 6 -35 13
-50 21 -133 16 -195 -12 -65 -30 -91 -53 -187 -167 -39 -47 -80 -94 -90 -105
-10 -11 -45 -51 -78 -90 -33 -38 -68 -77 -77 -86 -24 -22 -23 -30 10 -71 15
-19 36 -47 47 -62 11 -16 25 -33 30 -40 6 -6 24 -29 40 -51 17 -22 35 -46 42
-55 14 -17 197 -252 230 -296 12 -16 31 -40 42 -54 142 -181 311 -403 311
-411 0 -5 4 -9 9 -9 8 0 23 -18 88 -109 10 -14 26 -32 36 -40 9 -9 17 -21 17
-27 0 -7 3 -14 8 -16 4 -1 35 -39 69 -83 34 -44 74 -93 88 -108 14 -15 25 -31
25 -36 0 -8 26 -38 92 -108 l40 -41 -38 -42 c-61 -66 -76 -83 -124 -140 -25
-30 -56 -67 -70 -82 -14 -15 -30 -34 -35 -41 -40 -48 -152 -184 -160 -195 -5
-7 -20 -23 -32 -34 -13 -12 -23 -26 -23 -30 0 -5 -12 -20 -26 -33 -15 -14 -23
-25 -19 -25 5 0 2 -6 -7 -12 -8 -7 -37 -40 -63 -73 -26 -33 -51 -62 -54 -65
-3 -3 -40 -50 -81 -105 -41 -55 -78 -104 -83 -110 -4 -5 -19 -23 -32 -38 -14
-16 -22 -34 -19 -40 4 -7 4 -9 -1 -5 -4 4 -50 -50 -102 -120 -52 -70 -103
-137 -114 -150 -10 -12 -19 -27 -19 -32 0 -6 -4 -10 -8 -10 -4 0 -15 -12 -24
-27 -14 -25 -27 -41 -67 -89 -5 -7 -7 -15 -3 -19 27 -29 -77 40 -190 127 -20
15 -41 28 -47 28 -5 0 -11 4 -13 8 -2 5 -32 28 -68 52 -36 24 -71 50 -78 57
-8 7 -23 18 -34 24 -11 6 -46 31 -78 55 -32 24 -63 44 -69 44 -6 0 -11 5 -11
11 0 5 -4 7 -10 4 -5 -3 -10 -2 -10 3 0 8 -58 9 -89 1 -23 -6 -42 -23 -212
-192 -87 -86 -166 -171 -175 -188 -16 -32 -14 -93 5 -127 6 -9 75 -81 154
-159 79 -78 142 -145 139 -148 -3 -3 -1 -5 4 -5 6 0 77 -65 158 -145 133 -132
146 -147 131 -161 -8 -9 -13 -19 -10 -24 3 -5 1 -10 -3 -12 -11 -4 -112 -180
-137 -236 -10 -23 -15 -45 -12 -49 9 -8 74 21 177 81 47 27 102 58 124 71 l39
22 291 -293 c298 -300 328 -324 394 -318 47 4 61 15 233 187 202 203 194 192
192 264 -1 39 -32 102 -55 111 -4 2 -8 10 -8 17 0 7 -3 15 -7 17 -10 4 -42 48
-119 158 -32 47 -62 90 -67 95 -4 6 -30 42 -57 80 -27 39 -54 76 -60 82 -6 7
-20 28 -31 48 -18 30 -19 35 -5 35 9 0 16 5 16 11 0 5 4 8 9 5 5 -4 11 -2 13
2 3 8 314 243 332 251 5 2 16 11 26 20 28 26 60 51 66 51 3 0 11 6 18 13 7 6
25 21 40 32 16 11 33 25 40 30 6 6 25 21 43 33 34 24 72 55 104 84 10 10 23
18 27 18 5 0 21 13 38 28 16 15 49 43 74 62 65 51 78 61 124 102 22 21 44 38
47 38 4 0 25 17 47 38 23 20 58 51 79 67 46 37 235 198 283 242 19 17 46 41
59 53 l25 21 50 -48 c56 -54 59 -57 115 -97 23 -17 41 -33 41 -38 0 -4 5 -8
11 -8 11 0 55 -33 105 -77 14 -13 29 -23 34 -23 6 0 15 -9 22 -20 7 -11 17
-20 23 -20 5 0 24 -14 42 -30 18 -17 36 -30 42 -30 5 0 11 -4 13 -8 3 -7 87
-74 178 -142 18 -14 69 -53 112 -88 43 -34 82 -62 87 -62 5 0 11 -3 13 -7 3
-9 44 -43 98 -83 18 -14 57 -44 86 -67 28 -23 54 -39 58 -36 3 4 6 2 6 -4 0
-6 26 -30 58 -54 31 -23 59 -45 62 -49 3 -3 35 -28 73 -55 37 -27 67 -52 67
-57 0 -4 6 -8 14 -8 8 0 21 -8 28 -17 7 -10 36 -34 63 -53 28 -19 56 -40 63
-47 15 -15 29 -17 34 -5 2 4 42 41 91 81 48 41 87 78 87 83 0 4 4 8 9 8 6 0
23 12 38 26 15 14 45 40 67 58 151 123 192 188 190 301 -1 99 -26 148 -124
245 -44 44 -80 85 -80 91 0 7 -2 10 -5 7 -7 -6 -1095 1078 -1095 1090 0 5 47
54 103 110 57 56 102 104 99 107 -3 3 1 5 9 5 8 1 23 12 34 25 l19 24 48 -27
c26 -15 48 -30 48 -34 0 -5 6 -8 13 -8 7 0 35 -16 63 -34 29 -19 54 -33 57
-30 2 3 7 -2 10 -10 3 -8 -8 -28 -29 -48 -99 -94 -92 -179 21 -254 30 -20 51
-22 98 -10 28 7 281 254 301 295 11 22 13 51 7 93 -2 10 -71 91 -71 82 0 -4
-8 0 -17 8 -10 9 -33 16 -52 16 -37 1 -91 -22 -91 -38 0 -6 -7 -10 -16 -10 -8
0 -12 -4 -9 -10 3 -5 -5 -12 -17 -15 -18 -5 -53 12 -142 66 l-118 72 139 141
c76 77 139 140 141 140 5 -3 132 133 132 141 0 5 9 18 19 29 29 31 107 193
126 260 22 76 23 177 3 208 -9 13 -36 44 -62 69 -51 52 -55 67 -26 94 11 10
20 13 20 7 0 -6 6 -17 13 -24 6 -7 37 -43 68 -79 31 -37 73 -82 94 -100 21
-19 53 -47 72 -64 58 -53 100 -85 112 -85 6 0 11 -4 11 -9 0 -11 54 -31 83
-31 16 0 19 5 14 29 -7 33 -85 151 -100 151 -6 0 -7 3 -4 6 7 8 -167 183 -228
229 -73 57 -81 64 -69 72 19 13 70 107 69 128 0 31 -46 22 -108 -19 l-52 -36
-18 23 c-10 12 -27 32 -38 45 -10 12 -19 25 -19 28 0 3 -48 54 -108 112 -146
145 -264 221 -291 189z"/>
</g>
</svg>
